<svg width="96" height="82" viewBox="0 0 96 82" fill="none" xmlns="http://www.w3.org/2000/svg">
<g clip-path="url(#clip0_160_18383)">
<ellipse opacity="0.4" cx="58.1091" cy="21.5078" rx="7.18524" ry="7.18405" fill="#BCE9FF" fill-opacity="0.6"/>
<ellipse opacity="0.4" cx="50.3253" cy="8.33722" rx="4.79016" ry="4.78936" fill="#BCE9FF" fill-opacity="0.6"/>
<ellipse opacity="0.4" cx="67.6903" cy="33.4811" rx="4.79016" ry="4.78936" transform="rotate(-180 67.6903 33.4811)" fill="#BCE9FF" fill-opacity="0.6"/>
<ellipse opacity="0.4" cx="43.1395" cy="-0.0442076" rx="3.59262" ry="3.59202" fill="#BCE9FF" fill-opacity="0.6"/>
<ellipse opacity="0.4" cx="74.8761" cy="41.8626" rx="3.59262" ry="3.59202" transform="rotate(-180 74.8761 41.8626)" fill="#BCE9FF" fill-opacity="0.6"/>
<ellipse opacity="0.4" cx="33.5603" cy="-0.642878" rx="2.99385" ry="2.99335" fill="#BCE9FF" fill-opacity="0.6"/>
<ellipse opacity="0.4" cx="84.4554" cy="42.4612" rx="2.99385" ry="2.99335" transform="rotate(-180 84.4554 42.4612)" fill="#BCE9FF" fill-opacity="0.6"/>
<ellipse opacity="0.4" cx="26.3747" cy="5.34369" rx="2.99385" ry="2.99335" fill="#BCE9FF" fill-opacity="0.6"/>
<ellipse opacity="0.4" cx="91.6409" cy="36.4744" rx="2.99385" ry="2.99335" transform="rotate(-180 91.6409 36.4744)" fill="#BCE9FF" fill-opacity="0.6"/>
<ellipse opacity="0.4" cx="21.2851" cy="11.0311" rx="2.09569" ry="2.09535" fill="#BCE9FF" fill-opacity="0.6"/>
<ellipse opacity="0.4" cx="96.7285" cy="30.7872" rx="2.09569" ry="2.09535" transform="rotate(-180 96.7285 30.7872)" fill="#BCE9FF" fill-opacity="0.6"/>
</g>
<defs>
<clipPath id="clip0_160_18383">
<rect width="96" height="82" fill="white"/>
</clipPath>
</defs>
</svg>
