<svg width="96" height="82" viewBox="0 0 96 82" fill="none" xmlns="http://www.w3.org/2000/svg">
<g clip-path="url(#clip0_160_19115)">
<ellipse opacity="0.4" cx="58.1091" cy="21.5078" rx="7.18524" ry="7.18405" fill="#47C3FF"/>
<ellipse opacity="0.4" cx="50.3243" cy="8.33722" rx="4.79016" ry="4.78936" fill="#47C3FF"/>
<ellipse opacity="0.4" cx="67.6884" cy="33.4811" rx="4.79016" ry="4.78936" transform="rotate(-180 67.6884 33.4811)" fill="#47C3FF"/>
<ellipse opacity="0.4" cx="43.1395" cy="-0.0442076" rx="3.59262" ry="3.59202" fill="#47C3FF"/>
<ellipse opacity="0.4" cx="74.8742" cy="41.8626" rx="3.59262" ry="3.59202" transform="rotate(-180 74.8742 41.8626)" fill="#47C3FF"/>
<ellipse opacity="0.4" cx="33.5593" cy="-0.642878" rx="2.99385" ry="2.99335" fill="#47C3FF"/>
<ellipse opacity="0.4" cx="84.4544" cy="42.4612" rx="2.99385" ry="2.99335" transform="rotate(-180 84.4544 42.4612)" fill="#47C3FF"/>
<ellipse opacity="0.4" cx="26.3737" cy="5.34369" rx="2.99385" ry="2.99335" fill="#47C3FF"/>
<ellipse opacity="0.4" cx="91.6399" cy="36.4744" rx="2.99385" ry="2.99335" transform="rotate(-180 91.6399 36.4744)" fill="#47C3FF"/>
<ellipse opacity="0.4" cx="21.2842" cy="11.0311" rx="2.09569" ry="2.09535" fill="#47C3FF"/>
<ellipse opacity="0.4" cx="96.7285" cy="30.7872" rx="2.09569" ry="2.09535" transform="rotate(-180 96.7285 30.7872)" fill="#47C3FF"/>
</g>
<defs>
<clipPath id="clip0_160_19115">
<rect width="96" height="82" fill="white"/>
</clipPath>
</defs>
</svg>
