<svg width="14" height="17" viewBox="0 0 14 17" fill="none" xmlns="http://www.w3.org/2000/svg">
<path d="M9.5625 5.0625H5.0625C4.66468 5.0625 4.28314 5.22054 4.00184 5.50184C3.72054 5.78314 3.5625 6.16468 3.5625 6.5625C3.5625 6.96032 3.72054 7.34186 4.00184 7.62316C4.28314 7.90446 4.66468 8.0625 5.0625 8.0625H8.0625C8.46032 8.0625 8.84186 8.22054 9.12316 8.50184C9.40446 8.78314 9.5625 9.16468 9.5625 9.5625C9.5625 9.96032 9.40446 10.3419 9.12316 10.6232C8.84186 10.9045 8.46032 11.0625 8.0625 11.0625H3.5625M6.5625 12.1875V3.9375M0.5625 0.5625V15.5625L2.0625 14.8125L3.5625 15.5625L5.0625 14.8125L6.5625 15.5625L8.0625 14.8125L9.5625 15.5625L11.0625 14.8125L12.5625 15.5625V0.5625L11.0625 1.3125L9.5625 0.5625L8.0625 1.3125L6.5625 0.5625L5.0625 1.3125L3.5625 0.5625L2.0625 1.3125L0.5625 0.5625Z" stroke="#24A1DD" stroke-width="1.125" stroke-linecap="round" stroke-linejoin="round"/>
</svg>
